<?xml version="1.0" encoding="utf-8"?>
<svg version="1.1" xmlns:xlink="http://www.w3.org/1999/xlink" width="24px" height="23px" xmlns="http://www.w3.org/2000/svg">
  <g transform="matrix(1 0 0 1 -285 -458 )">
    <path d="M 1.7142857142857142 14  L 22.285714285714285 14  L 22.285714285714285 16.42857142857143  C 22.285714285714285 17.874627976190478  21.714285714285715 19.098214285714285  20.57142857142857 20.099330357142858  L 20.57142857142857 22.58928571428571  C 20.57142857142857 22.70907738095238  20.53125 22.80747767857143  20.450892857142858 22.884486607142858  C 20.370535714285715 22.96149553571429  20.267857142857146 23  20.142857142857142 23  L 19.285714285714285 23  C 19.160714285714285 23  19.058035714285715 22.96149553571429  18.97767857142857 22.884486607142858  C 18.89732142857143 22.80747767857143  18.857142857142858 22.70907738095238  18.857142857142858 22.58928571428571  L 18.857142857142858 21.07477678571429  C 18.294642857142858 21.263020833333336  17.72321428571429 21.357142857142858  17.142857142857142 21  L 6.857142857142857 21  C 6.276785714285715 21.357142857142858  5.705357142857144 21.263020833333336  5.142857142857142 21.07477678571429  L 5.142857142857142 22.486607142857142  C 5.142857142857142 22.632068452380953  5.100446428571429 22.75399925595238  5.015625 22.85239955357143  C 4.930803571428571 22.950799851190478  4.830357142857143 23  4.714285714285714 23  L 3.8571428571428577 23  C 3.7410714285714293 23  3.640625 22.950799851190478  3.5558035714285716 22.85239955357143  C 3.4709821428571432 22.75399925595238  3.4285714285714284 22.632068452380953  3.4285714285714284 22.486607142857142  L 3.4285714285714284 20.099330357142858  C 2.285714285714286 19.098214285714285  1.7142857142857142 17.874627976190478  1.7142857142857142 16.42857142857143  L 1.7142857142857142 14  Z M 9.308035714285715 8.329799107142858  C 9.388392857142858 8.406808035714286  9.428571428571429 8.505208333333332  9.428571428571429 8.625  C 9.428571428571429 8.744791666666664  9.388392857142858 8.843191964285714  9.308035714285715 8.920200892857142  C 9.227678571428571 8.997209821428571  9.125 9.035714285714286  9 9.035714285714286  C 8.875 9.035714285714286  8.772321428571429 8.997209821428571  8.691964285714285 8.920200892857142  C 8.611607142857142 8.843191964285714  8.571428571428571 8.744791666666664  8.571428571428571 8.625  C 8.571428571428571 8.505208333333332  8.611607142857142 8.406808035714286  8.691964285714285 8.329799107142858  C 8.772321428571429 8.252790178571429  8.875 8.214285714285714  9 8.214285714285714  C 9.125 8.214285714285714  9.227678571428571 8.252790178571429  9.308035714285715 8.329799107142858  Z M 10.165178571428571 7.5083705357142865  C 10.245535714285715 7.5853794642857135  10.285714285714285 7.683779761904759  10.285714285714285 7.803571428571429  C 10.285714285714285 7.923363095238094  10.245535714285715 8.021763392857142  10.165178571428571 8.098772321428571  C 10.084821428571429 8.17578125  9.982142857142858 8.214285714285714  9.857142857142858 8.214285714285714  C 9.732142857142858 8.214285714285714  9.629464285714285 8.17578125  9.549107142857142 8.098772321428571  C 9.46875 8.021763392857142  9.428571428571429 7.923363095238094  9.428571428571429 7.803571428571429  C 9.428571428571429 7.683779761904759  9.46875 7.5853794642857135  9.549107142857142 7.5083705357142865  C 9.629464285714285 7.431361607142858  9.732142857142858 7.392857142857142  9.857142857142858 7.392857142857142  C 9.982142857142858 7.392857142857142  10.084821428571429 7.431361607142858  10.165178571428571 7.5083705357142865  Z M 9.308035714285715 6.6869419642857135  C 9.388392857142858 6.763950892857142  9.428571428571429 6.862351190476188  9.428571428571429 6.982142857142858  C 9.428571428571429 7.101934523809523  9.388392857142858 7.200334821428571  9.308035714285715 7.27734375  C 9.227678571428571 7.354352678571429  9.125 7.392857142857142  9 7.392857142857142  C 8.875 7.392857142857142  8.772321428571429 7.354352678571429  8.691964285714285 7.27734375  C 8.611607142857142 7.200334821428571  8.571428571428571 7.101934523809523  8.571428571428571 6.982142857142858  C 8.571428571428571 6.862351190476188  8.611607142857142 6.763950892857142  8.691964285714285 6.6869419642857135  C 8.772321428571429 6.6099330357142865  8.875 6.571428571428571  9 6.571428571428571  C 9.125 6.571428571428571  9.227678571428571 6.6099330357142865  9.308035714285715 6.6869419642857135  Z M 11.022321428571429 6.6869419642857135  C 11.102678571428571 6.763950892857142  11.142857142857142 6.862351190476188  11.142857142857142 6.982142857142858  C 11.142857142857142 7.101934523809523  11.102678571428571 7.200334821428571  11.022321428571429 7.27734375  C 10.941964285714285 7.354352678571429  10.839285714285715 7.392857142857142  10.714285714285715 7.392857142857142  C 10.589285714285715 7.392857142857142  10.486607142857144 7.354352678571429  10.40625 7.27734375  C 10.325892857142858 7.200334821428571  10.285714285714285 7.101934523809523  10.285714285714285 6.982142857142858  C 10.285714285714285 6.862351190476188  10.325892857142858 6.763950892857142  10.40625 6.6869419642857135  C 10.486607142857144 6.6099330357142865  10.589285714285715 6.571428571428571  10.714285714285715 6.571428571428571  C 10.839285714285715 6.571428571428571  10.941964285714285 6.6099330357142865  11.022321428571429 6.6869419642857135  Z M 10.165178571428571 5.865513392857142  C 10.245535714285715 5.942522321428571  10.285714285714285 6.040922619047617  10.285714285714285 6.1607142857142865  C 10.285714285714285 6.280505952380952  10.245535714285715 6.37890625  10.165178571428571 6.455915178571429  C 10.084821428571429 6.532924107142858  9.982142857142858 6.571428571428571  9.857142857142858 6.571428571428571  C 9.732142857142858 6.571428571428571  9.629464285714285 6.532924107142858  9.549107142857142 6.455915178571429  C 9.46875 6.37890625  9.428571428571429 6.280505952380952  9.428571428571429 6.1607142857142865  C 9.428571428571429 6.040922619047617  9.46875 5.942522321428571  9.549107142857142 5.865513392857142  C 9.629464285714285 5.7885044642857135  9.732142857142858 5.75  9.857142857142858 5.75  C 9.982142857142858 5.75  10.084821428571429 5.7885044642857135  10.165178571428571 5.865513392857142  Z M 9.308035714285715 5.044084821428571  C 9.388392857142858 5.12109375  9.428571428571429 5.219494047619046  9.428571428571429 5.3392857142857135  C 9.428571428571429 5.4590773809523805  9.388392857142858 5.557477678571429  9.308035714285715 5.634486607142858  C 9.227678571428571 5.7114955357142865  9.125 5.75  9 5.75  C 8.875 5.75  8.772321428571429 5.7114955357142865  8.691964285714285 5.634486607142858  C 8.611607142857142 5.557477678571429  8.571428571428571 5.4590773809523805  8.571428571428571 5.3392857142857135  C 8.571428571428571 5.219494047619046  8.611607142857142 5.12109375  8.691964285714285 5.044084821428571  C 8.772321428571429 4.967075892857142  8.875 4.928571428571429  9 4.928571428571429  C 9.125 4.928571428571429  9.227678571428571 4.967075892857142  9.308035714285715 5.044084821428571  Z M 23.879464285714285 11.615513392857142  C 23.95982142857143 11.692522321428571  24 11.790922619047619  24 11.910714285714285  L 24 12.732142857142858  C 24 12.851934523809522  23.95982142857143 12.950334821428571  23.879464285714285 13.02734375  C 23.799107142857142 13.104352678571429  23.696428571428573 13.142857142857142  23.57142857142857 13  L 0.42857142857142855 13  C 0.3035714285714286 13.142857142857142  0.20089285714285718 13.104352678571429  0.1205357142857143 13.02734375  C 0.040178571428571425 12.950334821428571  0 12.851934523809522  0 12.732142857142858  L 0 11.910714285714285  C 0 11.790922619047619  0.040178571428571425 11.692522321428571  0.1205357142857143 11.615513392857142  C 0.20089285714285718 11.538504464285715  0.3035714285714286 11.5  0.42857142857142855 11.5  L 1.7142857142857142 11.5  L 1.7142857142857142 3.285714285714287  C 1.7142857142857142 2.378720238095236  2.049107142857143 1.6043526785714288  2.71875 0.9626116071428579  C 3.3883928571428577 0.3208705357142868  4.196428571428572 0  5.142857142857142 0  C 6.107142857142858 0  6.928571428571429 0.3337053571428579  7.607142857142857 1.0011160714285712  C 8.017857142857144 0.838541666666665  8.455357142857142 0.7872023809523807  8.919642857142858 0.8470982142857132  C 9.383928571428573 0.9069940476190457  9.799107142857144 1.0738467261904745  10.165178571428571 1.34765625  L 10.459821428571429 1.0652901785714288  C 10.558035714285715 0.9711681547619035  10.65625 0.9711681547619035  10.754464285714285 1.0652901785714288  L 11.316964285714285 1.6043526785714288  C 11.415178571428573 1.6984747023809517  11.415178571428573 1.7925967261904745  11.316964285714285 1.88671875  L 7.111607142857143 5.916852678571429  C 7.0133928571428585 6.010974702380952  6.915178571428573 6.010974702380952  6.816964285714285 5.916852678571429  L 6.254464285714285 5.377790178571429  C 6.15625 5.283668154761903  6.15625 5.1895461309523805  6.254464285714285 5.095424107142858  L 6.549107142857143 4.8130580357142865  C 6.227678571428571 4.419456845238094  6.046875000000002 3.974516369047617  6.006696428571429 3.4782366071428577  C 5.966517857142858 2.981956845238094  6.071428571428573 2.519903273809523  6.321428571428571 2.0920758928571423  C 5.991071428571429 1.7925967261904745  5.5982142857142865 1.6428571428571421  5.142857142857142 1.6428571428571421  C 4.669642857142858 1.6428571428571421  4.265625 1.803292410714287  3.9308035714285716 2.124162946428571  C 3.5959821428571423 2.4450334821428577  3.4285714285714284 2.8322172619047588  3.4285714285714284 3.285714285714287  L 3.4285714285714284 11.5  L 23.57142857142857 11.5  C 23.696428571428573 11.5  23.799107142857142 11.538504464285715  23.879464285714285 11.615513392857142  Z M 11.879464285714285 5.865513392857142  C 11.959821428571429 5.942522321428571  12 6.040922619047617  12 6.1607142857142865  C 12 6.280505952380952  11.959821428571429 6.37890625  11.879464285714285 6.455915178571429  C 11.799107142857142 6.532924107142858  11.696428571428573 6.571428571428571  11.571428571428571 6.571428571428571  C 11.446428571428573 6.571428571428571  11.34375 6.532924107142858  11.263392857142858 6.455915178571429  C 11.183035714285715 6.37890625  11.142857142857142 6.280505952380952  11.142857142857142 6.1607142857142865  C 11.142857142857142 6.040922619047617  11.183035714285715 5.942522321428571  11.263392857142858 5.865513392857142  C 11.34375 5.7885044642857135  11.446428571428573 5.75  11.571428571428571 5.75  C 11.696428571428573 5.75  11.799107142857142 5.7885044642857135  11.879464285714285 5.865513392857142  Z M 11.022321428571429 5.044084821428571  C 11.102678571428571 5.12109375  11.142857142857142 5.219494047619046  11.142857142857142 5.3392857142857135  C 11.142857142857142 5.4590773809523805  11.102678571428571 5.557477678571429  11.022321428571429 5.634486607142858  C 10.941964285714285 5.7114955357142865  10.839285714285715 5.75  10.714285714285715 5.75  C 10.589285714285715 5.75  10.486607142857144 5.7114955357142865  10.40625 5.634486607142858  C 10.325892857142858 5.557477678571429  10.285714285714285 5.4590773809523805  10.285714285714285 5.3392857142857135  C 10.285714285714285 5.219494047619046  10.325892857142858 5.12109375  10.40625 5.044084821428571  C 10.486607142857144 4.967075892857142  10.589285714285715 4.928571428571429  10.714285714285715 4.928571428571429  C 10.839285714285715 4.928571428571429  10.941964285714285 4.967075892857142  11.022321428571429 5.044084821428571  Z M 10.165178571428571 4.22265625  C 10.245535714285715 4.299665178571429  10.285714285714285 4.3980654761904745  10.285714285714285 4.517857142857142  C 10.285714285714285 4.637648809523809  10.245535714285715 4.736049107142858  10.165178571428571 4.8130580357142865  C 10.084821428571429 4.8900669642857135  9.982142857142858 4.928571428571429  9.857142857142858 4.928571428571429  C 9.732142857142858 4.928571428571429  9.629464285714285 4.8900669642857135  9.549107142857142 4.8130580357142865  C 9.46875 4.736049107142858  9.428571428571429 4.637648809523809  9.428571428571429 4.517857142857142  C 9.428571428571429 4.3980654761904745  9.46875 4.299665178571429  9.549107142857142 4.22265625  C 9.629464285714285 4.145647321428571  9.732142857142858 4.107142857142858  9.857142857142858 4.107142857142858  C 9.982142857142858 4.107142857142858  10.084821428571429 4.145647321428571  10.165178571428571 4.22265625  Z M 12.736607142857142 5.044084821428571  C 12.816964285714286 5.12109375  12.85714285714286 5.219494047619046  12.857142857142858 5.3392857142857135  C 12.85714285714286 5.4590773809523805  12.816964285714286 5.557477678571429  12.736607142857142 5.634486607142858  C 12.656250000000004 5.7114955357142865  12.55357142857143 5.75  12.42857142857143 5.75  C 12.303571428571429 5.75  12.200892857142858 5.7114955357142865  12.120535714285714 5.634486607142858  C 12.04017857142857 5.557477678571429  12 5.4590773809523805  12 5.3392857142857135  C 12 5.219494047619046  12.04017857142857 5.12109375  12.120535714285714 5.044084821428571  C 12.200892857142858 4.967075892857142  12.303571428571429 4.928571428571429  12.42857142857143 4.928571428571429  C 12.55357142857143 4.928571428571429  12.656250000000004 4.967075892857142  12.736607142857142 5.044084821428571  Z M 11.879464285714285 4.22265625  C 11.959821428571429 4.299665178571429  12 4.3980654761904745  12 4.517857142857142  C 12 4.637648809523809  11.959821428571429 4.736049107142858  11.879464285714285 4.8130580357142865  C 11.799107142857142 4.8900669642857135  11.696428571428573 4.928571428571429  11.571428571428571 4.928571428571429  C 11.446428571428573 4.928571428571429  11.34375 4.8900669642857135  11.263392857142858 4.8130580357142865  C 11.183035714285715 4.736049107142858  11.142857142857142 4.637648809523809  11.142857142857142 4.517857142857142  C 11.142857142857142 4.3980654761904745  11.183035714285715 4.299665178571429  11.263392857142858 4.22265625  C 11.34375 4.145647321428571  11.446428571428573 4.107142857142858  11.571428571428571 4.107142857142858  C 11.696428571428573 4.107142857142858  11.799107142857142 4.145647321428571  11.879464285714285 4.22265625  Z M 11.022321428571429 3.401227678571429  C 11.102678571428571 3.4782366071428577  11.142857142857142 3.5766369047619033  11.142857142857142 3.696428571428571  C 11.142857142857142 3.816220238095236  11.102678571428571 3.914620535714287  11.022321428571429 3.991629464285713  C 10.941964285714285 4.068638392857142  10.839285714285715 4.107142857142858  10.714285714285715 4.107142857142858  C 10.589285714285715 4.107142857142858  10.486607142857144 4.068638392857142  10.40625 3.991629464285713  C 10.325892857142858 3.914620535714287  10.285714285714285 3.816220238095236  10.285714285714285 3.696428571428571  C 10.285714285714285 3.5766369047619033  10.325892857142858 3.4782366071428577  10.40625 3.401227678571429  C 10.486607142857144 3.32421875  10.589285714285715 3.285714285714287  10.714285714285715 3.285714285714287  C 10.839285714285715 3.285714285714287  10.941964285714285 3.32421875  11.022321428571429 3.401227678571429  Z M 13.59375 4.22265625  C 13.674107142857142 4.299665178571429  13.714285714285714 4.3980654761904745  13.714285714285714 4.517857142857142  C 13.714285714285714 4.637648809523809  13.674107142857142 4.736049107142858  13.59375 4.8130580357142865  C 13.513392857142858 4.8900669642857135  13.410714285714288 4.928571428571429  13.285714285714286 4.928571428571429  C 13.160714285714285 4.928571428571429  13.058035714285715 4.8900669642857135  12.97767857142857 4.8130580357142865  C 12.89732142857143 4.736049107142858  12.85714285714286 4.637648809523809  12.857142857142858 4.517857142857142  C 12.85714285714286 4.3980654761904745  12.89732142857143 4.299665178571429  12.97767857142857 4.22265625  C 13.058035714285715 4.145647321428571  13.160714285714285 4.107142857142858  13.285714285714286 4.107142857142858  C 13.410714285714288 4.107142857142858  13.513392857142858 4.145647321428571  13.59375 4.22265625  Z M 12.736607142857142 3.401227678571429  C 12.816964285714286 3.4782366071428577  12.85714285714286 3.5766369047619033  12.857142857142858 3.696428571428571  C 12.85714285714286 3.816220238095236  12.816964285714286 3.914620535714287  12.736607142857142 3.991629464285713  C 12.656250000000004 4.068638392857142  12.55357142857143 4.107142857142858  12.42857142857143 4.107142857142858  C 12.303571428571429 4.107142857142858  12.200892857142858 4.068638392857142  12.120535714285714 3.991629464285713  C 12.04017857142857 3.914620535714287  12 3.816220238095236  12 3.696428571428571  C 12 3.5766369047619033  12.04017857142857 3.4782366071428577  12.120535714285714 3.401227678571429  C 12.200892857142858 3.32421875  12.303571428571429 3.285714285714287  12.42857142857143 3.285714285714287  C 12.55357142857143 3.285714285714287  12.656250000000004 3.32421875  12.736607142857142 3.401227678571429  Z M 14.450892857142858 3.401227678571429  C 14.53125 3.4782366071428577  14.57142857142857 3.5766369047619033  14.57142857142857 3.696428571428571  C 14.57142857142857 3.816220238095236  14.53125 3.914620535714287  14.450892857142858 3.991629464285713  C 14.370535714285714 4.068638392857142  14.267857142857144 4.107142857142858  14.142857142857142 4.107142857142858  C 14.017857142857146 4.107142857142858  13.91517857142857 4.068638392857142  13.83482142857143 3.991629464285713  C 13.754464285714286 3.914620535714287  13.714285714285714 3.816220238095236  13.714285714285714 3.696428571428571  C 13.714285714285714 3.5766369047619033  13.754464285714286 3.4782366071428577  13.83482142857143 3.401227678571429  C 13.91517857142857 3.32421875  14.017857142857146 3.285714285714287  14.142857142857142 3.285714285714287  C 14.267857142857144 3.285714285714287  14.370535714285714 3.32421875  14.450892857142858 3.401227678571429  Z " fill-rule="nonzero" fill="#555555" stroke="none" fill-opacity="0.5843137254901961" transform="matrix(1 0 0 1 285 458 )" />
  </g>
</svg>