<?xml version="1.0" encoding="utf-8"?>
<svg version="1.1" xmlns:xlink="http://www.w3.org/1999/xlink" width="24px" height="23px" xmlns="http://www.w3.org/2000/svg">
  <g transform="matrix(1 0 0 1 -36 -459 )">
    <path d="M 0 4.928571428571429  L 12 0  L 24 4.928571428571429  L 24 6.571428571428571  L 22.4 6.571428571428571  C 22.4 6.793898809523809  22.314583333333335 6.9864211309523805  22.143749999999997 7.1489955357142865  C 21.97291666666667 7.311569940476188  21.770833333333336 7.392857142857142  21.537499999999998 7.392857142857142  L 2.4625 7.392857142857142  C 2.229166666666667 7.392857142857142  2.0270833333333336 7.311569940476188  1.8562500000000002 7.1489955357142865  C 1.6854166666666668 6.9864211309523805  1.6 6.793898809523809  1.6 6.571428571428571  L 0 6.571428571428571  L 0 4.928571428571429  Z M 3.2 18.07142857142857  L 3.2 8.214285714285714  L 6.4 8.214285714285714  L 6.4 18.07142857142857  L 8 18.07142857142857  L 8 8.214285714285714  L 11.2 8.214285714285714  L 11.2 18.07142857142857  L 12.8 18.07142857142857  L 12.8 8.214285714285714  L 16 8.214285714285714  L 16 18.07142857142857  L 17.599999999999998 18.07142857142857  L 17.599999999999998 8.214285714285714  L 20.8 8.214285714285714  L 20.8 18.07142857142857  L 21.537499999999998 18.07142857142857  C 21.770833333333336 18.07142857142857  21.97291666666667 18.152715773809522  22.143749999999997 18.31529017857143  C 22.314583333333335 18.477864583333336  22.4 18.670386904761905  22.4 18.892857142857142  L 22.4 19.714285714285715  L 1.6 19.714285714285715  L 1.6 18.892857142857142  C 1.6 18.670386904761905  1.6854166666666668 18.477864583333336  1.8562500000000002 18.31529017857143  C 2.0270833333333336 18.152715773809522  2.229166666666667 18.07142857142857  2.4625 18.07142857142857  L 3.2 18.07142857142857  Z M 0.8624999999999999 20.53571428571429  L 23.137500000000003 20.53571428571429  C 23.370833333333334 20.53571428571429  23.572916666666668 20.617001488095237  23.743750000000002 20.779575892857142  C 23.914583333333336 20.942150297619047  24.000000000000007 21.13467261904762  24 21.357142857142858  L 24 23  L 0 23  L 0 21.357142857142858  C 0 21.13467261904762  0.08541666666666667 20.942150297619047  0.25625 20.779575892857142  C 0.42708333333333337 20.617001488095237  0.6291666666666667 20.53571428571429  0.8624999999999999 20.53571428571429  Z " fill-rule="nonzero" fill="#555555" stroke="none" fill-opacity="0.5843137254901961" transform="matrix(1 0 0 1 36 459 )" />
  </g>
</svg>