<?xml version="1.0" encoding="utf-8"?>
<svg version="1.1" xmlns:xlink="http://www.w3.org/1999/xlink" width="23px" height="21px" xmlns="http://www.w3.org/2000/svg">
  <g transform="matrix(1 0 0 1 -167 -507 )">
    <path d="M 10.366586538461538 2.631835937500001  C 10.643028846153848 3.338216145833332  10.781250000000002 4.028645833333331  10.78125 4.703125000000001  C 10.781250000000002 5.25  10.693709935897436 5.767252604166666  10.518629807692308 6.2548828125  C 10.34354967948718 6.742513020833332  10.053285256410257 7.164062499999998  9.647836538461538 7.519531249999999  C 9.242387820512823 7.874999999999997  8.758613782051283 8.052734375  8.196514423076923 8.052734375  C 7.4961939102564115 8.052734375  6.860376602564103 7.790690104166665  6.2890625 7.266601562500001  C 5.717748397435898 6.742513020833332  5.293870192307693 6.124999999999999  5.017427884615385 5.4140625  C 4.740985576923077 4.703125000000001  4.602764423076923 4.014973958333332  4.602764423076923 3.349609375000001  C 4.602764423076923 2.802734374999999  4.690304487179488 2.2854817708333313  4.865384615384615 1.7978515624999991  C 5.040464743589744 1.3102213541666647  5.330729166666667 0.8886718750000008  5.736177884615385 0.533203125  C 6.141626602564103 0.17773437499999922  6.625400641025641 0  7.1875 0  C 7.897035256410256 0  8.53515625 0.26204427083333204  9.10186298076923 0.7861328125000008  C 9.668569711538462 1.3102213541666647  10.09014423076923 1.9254557291666647  10.366586538461538 2.631835937500001  Z M 5.5703125 9.2216796875  C 5.8928285256410255 9.937174479166666  6.054086538461538 10.632161458333332  6.054086538461538 11.306640624999998  C 6.054086538461538 12.035807291666668  5.860576923076924 12.669270833333334  5.473557692307692 13.20703125  C 5.086538461538462 13.744791666666666  4.538261217948718 14.013671874999998  3.8287259615384612 14.013671874999998  C 3.128405448717949 14.013671874999998  2.47646233974359 13.7607421875  1.8728966346153846 13.254882812499998  C 1.2693309294871795 12.749023437500002  0.8062900641025641 12.140625  0.4837740384615385 11.429687499999998  C 0.1612580128205128 10.718750000000002  0 10.026041666666664  0 9.3515625  C 0 8.622395833333332  0.19350961538461536 7.986653645833331  0.5805288461538461 7.4443359375  C 0.967548076923077 6.902018229166666  1.5158253205128205 6.630859375000001  2.225360576923077 6.630859375000001  C 2.9256810897435903 6.630859375000001  3.577624198717949 6.883789062499999  4.181189903846154 7.389648437500001  C 4.7847556089743595 7.8955078125  5.2477964743589745 8.506184895833332  5.5703125 9.2216796875  Z M 8.83233173076923 11.744140625000002  C 9.790665064102564 11.206380208333332  10.679887820512823 10.937499999999998  11.5 10.937499999999998  C 12.587339743589745 10.937499999999998  13.762219551282051 11.3818359375  15.024639423076923 12.270507812499998  C 16.287059294871796 13.159179687500002  17.342147435897438 14.239257812499998  18.189903846153847 15.510742187499998  C 19.03766025641026 16.7822265625  19.46153846153846 17.942057291666664  19.46153846153846 18.990234375  C 19.46153846153846 19.409505208333332  19.383213141025646 19.758138020833332  19.2265625 20.0361328125  C 19.06991185897436 20.314127604166668  18.846454326923077 20.519205729166668  18.556189903846153 20.6513671875  C 18.265925480769234 20.783528645833332  17.96875 20.874674479166664  17.66466346153846 20.9248046875  C 17.360576923076923 20.974934895833336  17.010416666666668 21  16.614182692307693 21  C 15.98758012820513 21  15.123697916666668 20.794921875  14.022536057692307 20.384765625  C 12.921374198717949 19.974609375  12.080528846153845 19.76953125  11.5 19.76953125  C 10.891826923076923 19.76953125  10.004907852564102 19.972330729166664  8.839242788461538 20.3779296875  C 7.673577724358975 20.783528645833332  6.749799679487181 20.986328125  6.067908653846153 20.986328125  C 4.381610576923077 20.986328125  3.5384615384615388 20.320963541666664  3.5384615384615388 18.990234375  C 3.5384615384615388 18.206380208333336  3.7964743589743595 17.333658854166664  4.3125 16.3720703125  C 4.828525641025641 15.410481770833332  5.471254006410257 14.533203125000002  6.240685096153847 13.740234375  C 7.010116185897435 12.947265624999998  7.873998397435898 12.281901041666668  8.83233173076923 11.744140625000002  Z M 16.7109375 7.266601562500001  C 16.139623397435898 7.790690104166665  15.50380608974359 8.052734375  14.803485576923077 8.052734375  C 14.241386217948719 8.052734375  13.75761217948718 7.874999999999997  13.352163461538462 7.519531249999999  C 12.946714743589745 7.164062499999998  12.656450320512823 6.742513020833332  12.481370192307693 6.2548828125  C 12.306290064102564 5.767252604166666  12.21875 5.25  12.21875 4.703125000000001  C 12.21875 4.028645833333331  12.356971153846155 3.338216145833332  12.633413461538462 2.631835937500001  C 12.909855769230768 1.9254557291666647  13.331430288461538 1.3102213541666647  13.898137019230768 0.7861328125000008  C 14.46484375 0.26204427083333204  15.102964743589745 0  15.8125 0  C 16.37459935897436 0  16.858373397435898 0.17773437499999922  17.263822115384617 0.533203125  C 17.669270833333336 0.8886718750000008  17.95953525641026 1.3102213541666647  18.134615384615383 1.7978515624999991  C 18.309695512820515 2.2854817708333313  18.397235576923077 2.802734374999999  18.397235576923077 3.349609375000001  C 18.397235576923077 4.014973958333332  18.259014423076923 4.703125000000001  17.982572115384617 5.4140625  C 17.706129807692307 6.124999999999999  17.282251602564106 6.742513020833332  16.7109375 7.266601562500001  Z M 18.818810096153847 7.389648437500001  C 19.42237580128205 6.883789062499999  20.074318910256412 6.630859375000001  20.774639423076923 6.630859375000001  C 21.48417467948718 6.630859375000001  22.032451923076923 6.902018229166666  22.419471153846153 7.4443359375  C 22.806490384615383 7.986653645833331  23 8.622395833333332  23 9.3515625  C 23 10.026041666666664  22.83874198717949 10.718750000000002  22.51622596153846 11.429687499999998  C 22.193709935897438 12.140625  21.73066907051282 12.749023437500002  21.127103365384617 13.254882812499998  C 20.523537660256412 13.7607421875  19.87159455128205 14.013671874999998  19.17127403846154 14.013671874999998  C 18.461738782051285 14.013671874999998  17.91346153846154 13.744791666666666  17.526442307692307 13.20703125  C 17.139423076923077 12.669270833333334  16.94591346153846 12.035807291666668  16.94591346153846 11.306640624999998  C 16.94591346153846 10.632161458333332  17.107171474358974 9.937174479166666  17.4296875 9.2216796875  C 17.75220352564103 8.506184895833332  18.215244391025646 7.8955078125  18.818810096153847 7.389648437500001  Z " fill-rule="nonzero" fill="#555555" stroke="none" fill-opacity="0.5843137254901961" transform="matrix(1 0 0 1 167 507 )" />
  </g>
</svg>