<?xml version="1.0" encoding="utf-8"?>
<svg version="1.1" xmlns:xlink="http://www.w3.org/1999/xlink" width="24px" height="20px" xmlns="http://www.w3.org/2000/svg">
  <g transform="matrix(1 0 0 1 -167 -460 )">
    <path d="M 3 1.0000000000000009  L 3 12  L 23.25 12  C 23.453125 12  23.62890625 12.098958333333332  23.77734375 12.296875  C 23.92578125 12.494791666666668  24 12.729166666666664  24 13  L 24 20  L 21 20  L 21 16  L 3 16  L 3 20  L 0 20  L 0 1.0000000000000009  C 0 0.7291666666666652  0.07421875 0.4947916666666652  0.22265625 0.2968750000000009  C 0.37109375 0.09895833333333215  0.546875 0  0.75 0  L 2.25 0  C 2.453125 0  2.62890625 0.09895833333333215  2.77734375 0.2968750000000009  C 2.92578125 0.4947916666666652  3 0.7291666666666652  3 1.0000000000000009  Z M 8.87109375 9.828125  C 9.45703125 9.046875  9.75 8.104166666666666  9.75 7  C 9.75 5.895833333333331  9.45703125 4.953125  8.87109375 4.171875  C 8.28515625 3.3906250000000004  7.578125000000001 3.0000000000000004  6.75 3.0000000000000004  C 5.921875 3.0000000000000004  5.21484375 3.3906250000000004  4.62890625 4.171875  C 4.04296875 4.953125  3.75 5.895833333333331  3.75 7  C 3.75 8.104166666666666  4.04296875 9.046875  4.62890625 9.828125  C 5.21484375 10.609375  5.921875 11  6.75 11  C 7.578125000000001 11  8.28515625 10.609375  8.87109375 9.828125  Z M 10.5 11  L 24 11  L 24 10  C 24 8.34375  23.560546875 6.929687499999999  22.681640625 5.757812499999999  C 21.802734375 4.585937499999999  20.7421875 3.999999999999999  19.5 3.999999999999999  L 11.25 3.999999999999999  C 11.046875 3.999999999999999  10.87109375 4.098958333333331  10.72265625 4.296875  C 10.57421875 4.494791666666666  10.5 4.729166666666666  10.5 5  L 10.5 11  Z " fill-rule="nonzero" fill="#555555" stroke="none" fill-opacity="0.5843137254901961" transform="matrix(1 0 0 1 167 460 )" />
  </g>
</svg>