<?xml version="1.0" encoding="utf-8"?>
<svg version="1.1" xmlns:xlink="http://www.w3.org/1999/xlink" width="24px" height="20px" xmlns="http://www.w3.org/2000/svg">
  <g transform="matrix(1 0 0 1 -36 -512 )">
    <path d="M 5.07421875 13.412500000000001  C 5.44140625 13.02083333333333  5.625000000000001 12.549999999999999  5.625 12  C 5.625000000000001 11.45  5.44140625 10.979166666666664  5.07421875 10.587499999999999  C 4.70703125 10.195833333333333  4.265625 10  3.75 10  C 3.234375 10  2.79296875 10.195833333333333  2.42578125 10.587499999999999  C 2.05859375 10.979166666666664  1.875 11.45  1.875 12  C 1.875 12.549999999999999  2.05859375 13.02083333333333  2.42578125 13.412500000000001  C 2.79296875 13.804166666666667  3.234375 14  3.75 14  C 4.265625 14  4.70703125 13.804166666666667  5.07421875 13.412500000000001  Z M 7.08984375 3.5375  L 6.046875 8  L 17.953125 8  L 16.91015625 3.5375  C 16.89453125 3.470833333333332  16.83984375 3.397916666666665  16.74609375 3.318749999999999  C 16.65234375 3.2395833333333313  16.5703125 3.2000000000000006  16.5 3.2000000000000006  L 7.5 3.2000000000000006  C 7.4296875 3.2000000000000006  7.34765625 3.2395833333333313  7.25390625 3.318749999999999  C 7.16015625 3.397916666666665  7.10546875 3.470833333333332  7.08984375 3.5375  Z M 21.57421875 13.412500000000001  C 21.94140625 13.02083333333333  22.125 12.549999999999999  22.125 12  C 22.125 11.45  21.94140625 10.979166666666664  21.57421875 10.587499999999999  C 21.207031250000004 10.195833333333333  20.765625000000004 10  20.25 10  C 19.734375000000004 10  19.29296875 10.195833333333333  18.92578125 10.587499999999999  C 18.55859375 10.979166666666664  18.375 11.45  18.375 12  C 18.375 12.549999999999999  18.55859375 13.02083333333333  18.92578125 13.412500000000001  C 19.29296875 13.804166666666667  19.734375000000004 14  20.25 14  C 20.765625000000004 14  21.207031250000004 13.804166666666667  21.57421875 13.412500000000001  Z M 23.232421875 8.81875  C 23.744140625 9.364583333333334  24 10.024999999999999  24 10.8  L 24 15.600000000000001  C 24 15.716666666666665  23.96484375 15.8125  23.89453125 15.887500000000001  C 23.82421875 15.962499999999999  23.734375 16  23.625 16  L 22.5 16  L 22.5 17.6  C 22.500000000000004 18.266666666666666  22.28125 18.833333333333336  21.84375 19.3  C 21.40625 19.766666666666666  20.875 20  20.25 20  C 19.625 20  19.09375 19.766666666666666  18.65625 19.3  C 18.21875 18.833333333333336  18 18.266666666666666  18 17.6  L 18 16  L 6 16  L 6 17.6  C 6 18.266666666666666  5.78125 18.833333333333336  5.34375 19.3  C 4.90625 19.766666666666666  4.375 20  3.75 20  C 3.125 20  2.5937500000000004 19.766666666666666  2.15625 19.3  C 1.7187500000000002 18.833333333333336  1.5 18.266666666666666  1.5 17.6  L 1.5 16  L 0.375 16  C 0.265625 16  0.17578125000000003 15.962499999999999  0.10546875 15.887500000000001  C 0.03515625 15.8125  0 15.716666666666665  0 15.600000000000001  L 0 10.8  C 0 10.024999999999999  0.255859375 9.364583333333334  0.767578125 8.81875  C 1.279296875 8.272916666666667  1.8984375 8  2.625 8  L 2.953125 8  L 4.18359375 2.762500000000001  C 4.36328125 1.9791666666666652  4.76953125 1.3229166666666647  5.40234375 0.7937499999999997  C 6.03515625 0.2645833333333325  6.734375000000001 0  7.5 0  L 16.5 0  C 17.265625 0  17.96484375 0.2645833333333325  18.59765625 0.7937499999999997  C 19.230468750000004 1.3229166666666647  19.636718750000004 1.9791666666666652  19.81640625 2.762500000000001  L 21.046875 8  L 21.375 8  C 22.101562500000004 8  22.720703125 8.272916666666667  23.232421875 8.81875  Z " fill-rule="nonzero" fill="#555555" stroke="none" fill-opacity="0.5843137254901961" transform="matrix(1 0 0 1 36 512 )" />
  </g>
</svg>